HIERARCHY
ROOT hip
{
	OFFSET 0.000000 0.000000 0.000000 
	CHANNELS 6 Xposition Yposition Zposition Xrotation Zrotation Yrotation
	JOINT abdomen
	{
		OFFSET 0.000000 3.402643 0.000000 
		CHANNELS 3 Xrotation Zrotation Yrotation
		JOINT chest
		{
			OFFSET 0.000000 8.438565 -0.680529 
			CHANNELS 3 Xrotation Zrotation Yrotation
			JOINT neck
			{
				OFFSET 0.000000 10.207942 -0.272212 
				CHANNELS 3 Xrotation Zrotation Yrotation
				JOINT head
				{
					OFFSET 0.000000 3.130431 0.000000 
					CHANNELS 3 Xrotation Zrotation Yrotation
					End Site
					{
						OFFSET 0.000000 3.130435 0.000000 
					}
				}
			}
			JOINT lCollar
			{
				OFFSET 3.470700 6.669187 -0.816635 
				CHANNELS 3 Yrotation Zrotation Xrotation
				JOINT lShldr
				{
					OFFSET 3.198488 0.000000 0.000000 
					CHANNELS 3 Zrotation Yrotation Xrotation
					JOINT lForeArm
					{
						OFFSET 10.139888 0.000000 0.000000 
						CHANNELS 3 Yrotation Zrotation Xrotation
						JOINT lHand
						{
							OFFSET 8.370511 0.000000 0.000000 
							CHANNELS 3 Zrotation Yrotation Xrotation
							End Site
							{
								OFFSET 4.083176 0.000000 0.000000 
							}
						}
					}
				}
			}
			JOINT rCollar
			{
				OFFSET -3.470700 6.669187 -0.816635 
				CHANNELS 3 Yrotation Zrotation Xrotation
				JOINT rShldr
				{
					OFFSET -3.198488 0.000000 0.000000 
					CHANNELS 3 Zrotation Yrotation Xrotation
					JOINT rForeArm
					{
						OFFSET -10.139888 0.000000 0.000000 
						CHANNELS 3 Yrotation Zrotation Xrotation
						JOINT rHand
						{
							OFFSET -8.370511 0.000000 0.000000 
							CHANNELS 3 Zrotation Yrotation Xrotation
							End Site
							{
								OFFSET -4.083176 0.000000 0.000000 
							}
						}
					}
				}
			}
		}
	}
	JOINT lThigh
	{
		OFFSET 5.308129 -1.633274 1.361059 
		CHANNELS 3 Xrotation Zrotation Yrotation
		JOINT lShin
		{
			OFFSET -2.041588 -20.007561 0.000000 
			CHANNELS 3 Xrotation Zrotation Yrotation
			JOINT lFoot
			{
				OFFSET 0.000000 -19.190928 -1.224953 
				CHANNELS 3 Xrotation Yrotation Zrotation
				End Site
				{
					OFFSET 0.000000 -2.449906 4.627600 
				}
			}
		}
	}
	JOINT rThigh
	{
		OFFSET -5.308129 -1.633274 1.361059 
		CHANNELS 3 Xrotation Zrotation Yrotation
		JOINT rShin
		{
			OFFSET 2.041588 -20.007561 0.000000 
			CHANNELS 3 Xrotation Zrotation Yrotation
			JOINT rFoot
			{
				OFFSET 0.000000 -19.190928 -1.224953 
				CHANNELS 3 Xrotation Yrotation Zrotation
				End Site
				{
					OFFSET 0.000000 -2.449906 4.627600 
				}
			}
		}
	}
}
MOTION
Frames: 14
Frame Time: 0.033333
-5.929788 44.983173 -68.664986 15.283204 -7.392579 21.082726 20.888672 3.691406 -0.516949 -29.960936 -0.332031 -1.074275 -10.458985 -7.011719 -5.087890 17.968750 8.769531 -5.506323 11.093750 21.816406 0.904574 32.919922 -46.748047 -84.443359 -81.298828 -3.066406 -33.993622 15.371093 -4.541015 -1.191406 -29.921873 -20.478518 0.940917 -39.531250 44.062500 -118.733437 89.228516 3.583984 -78.018188 -12.695313 8.496095 -1.728516 -31.374046 16.774961 12.606083 63.505260 0.249135 -3.527249 -23.031754 -2.518652 -6.455331 -51.101089 -11.952425 -6.756093 52.633343 -0.185542 2.874648 -5.346267 6.616766 5.526894 
-5.890069 44.226727 -69.811630 13.886718 -6.337891 19.140627 21.240234 3.691406 -0.517578 -28.906248 -0.859375 -1.045068 -11.406251 -6.337891 -3.935547 19.033203 8.232422 -4.227016 10.410156 21.425781 1.083984 30.771484 -51.503906 -75.654297 -76.640625 -2.958984 -28.124704 13.808594 -5.410157 -1.279297 -27.070311 -21.240232 0.950805 -37.978512 50.214844 -112.092110 86.796875 3.496094 -78.047470 -12.197266 9.003906 -1.863704 -26.790226 18.147383 12.609206 67.562157 0.423351 -3.644708 -23.269787 0.666387 -4.878736 -52.703640 -12.138486 -6.616169 54.574314 -0.185471 2.980885 -4.338755 8.701281 5.540195 
-5.722418 43.503010 -70.757790 12.304688 -5.283204 17.392578 20.898439 3.906250 -0.634100 -28.378906 -1.562500 -1.201172 -10.576172 -5.156250 -3.007812 19.560549 7.529296 -2.967470 9.785157 21.347658 1.012070 25.507813 -56.005856 -64.978790 -71.679688 -2.607422 -22.138227 12.919922 -5.253906 -1.230469 -23.964844 -21.435547 0.976562 -33.662106 56.142578 -102.452827 82.978516 3.564453 -76.865234 -11.845703 9.013672 -1.853939 -20.163801 18.532082 12.359124 68.432755 0.736507 -3.637041 -22.912399 0.306335 -4.886238 -53.034809 -12.479828 -6.102029 55.452465 -0.185423 3.020674 -4.891194 9.973594 5.970787 
-5.474144 42.881844 -71.586197 10.195313 -4.228463 16.171682 19.853514 4.072266 -1.132813 -27.851561 -2.089844 -1.709340 -8.339843 -4.326172 -2.051518 20.263672 6.992187 -1.883577 8.984375 20.927734 1.012137 17.333984 -58.505863 -51.914063 -66.318359 -2.431641 -17.734081 12.353516 -3.574219 -0.849609 -21.572266 -21.601561 1.064453 -25.908203 60.341797 -90.839844 78.740234 3.457031 -77.207619 -12.158202 8.330078 -1.697802 -11.943322 18.212704 11.808868 67.203239 0.755647 -3.570091 -21.381561 -0.733771 -5.487438 -52.808746 -12.470024 -4.561012 56.336624 -0.224645 2.876570 -5.416301 10.882770 6.245097 
-5.185200 42.405334 -72.421844 8.085938 -3.349610 15.272866 18.457031 4.062500 -1.679688 -27.324219 -2.792969 -2.041491 -4.863282 -3.525391 -1.269544 20.429688 6.464844 -1.171875 8.759767 20.175781 0.934132 9.443359 -57.851566 -40.174286 -61.103516 -2.265625 -14.931252 9.892579 -3.613281 -0.713506 -19.873047 -21.699219 1.058298 -16.406250 60.615238 -78.243446 74.394531 3.525390 -78.906250 -12.412109 5.605469 -1.180685 -4.043057 16.871147 11.448051 63.874371 0.584869 -3.866223 -16.826744 -0.379898 -5.367426 -52.622715 -12.821229 -3.570416 56.853493 -0.361301 2.819770 -4.685700 11.486073 6.015784 
-4.896731 42.077858 -73.408653 6.328125 -2.822266 14.755377 17.060545 4.228516 -2.177734 -26.796873 -3.144531 -2.383348 -0.302734 -2.949219 -0.986328 20.253906 6.113281 -0.829038 8.769531 19.658203 1.025391 4.755859 -53.671871 -33.007816 -56.601563 -2.246094 -13.730470 8.496095 -4.677734 -0.635562 -19.121094 -21.347656 0.986329 -10.126953 56.767574 -68.125000 69.482422 3.476563 -78.417969 -11.826172 2.548828 -0.634766 2.253716 15.443117 9.857736 58.613350 -0.293478 -3.442699 -10.699312 0.176981 -4.969946 -52.700661 -13.016605 -2.124738 56.666748 -0.507719 3.268198 -2.995633 11.725966 5.551536 
-4.649525 41.896217 -74.630463 5.449219 -2.646484 14.579626 15.302733 4.111328 -2.402344 -26.269533 -3.144531 -2.714844 4.609375 -2.578125 -0.849609 19.726563 5.947266 -0.682582 9.453124 19.355469 1.015625 3.974610 -46.650394 -32.409447 -52.919922 -2.441406 -15.556642 8.154297 -5.195313 -0.791016 -19.433594 -21.416016 1.005859 -8.066405 50.400391 -63.976852 64.111328 3.583984 -75.108032 -10.068359 -1.572266 -0.019531 5.761114 13.515797 7.727541 52.652596 -0.181010 -3.067634 -10.247627 0.998764 -5.159131 -52.670265 -12.830872 -0.816919 54.749584 -0.185485 2.998463 -0.445234 11.472180 4.946584 
-4.449268 41.837765 -76.089523 5.449219 -2.646484 14.579626 13.896485 3.779297 -2.509122 -25.751953 -2.978516 -2.520039 9.179688 -2.060547 -0.918320 19.189453 5.595703 -0.888672 10.820313 19.609375 0.839844 5.117188 -38.339844 -37.466991 -49.375000 -2.646484 -21.181641 8.154297 -5.371094 -0.791016 -20.634766 -21.230469 0.996093 -8.593750 42.559315 -65.550476 57.724606 3.574219 -69.462891 -5.712890 -5.976563 0.233360 7.144891 11.354151 6.621215 49.500732 -0.692530 -2.812012 -16.699104 3.676727 -4.124989 -53.030231 -12.664830 0.854621 51.780113 -0.195230 2.687129 1.690334 10.822519 4.657966 
-4.286716 41.894440 -77.665619 5.791016 -2.646484 14.052283 12.998047 3.339844 -2.294353 -25.390623 -2.451172 -2.158621 13.935547 -1.728516 -1.133107 18.486326 5.429688 -1.093750 11.757813 19.902346 0.983004 5.205078 -28.671873 -45.048828 -45.312500 -3.017578 -28.944798 8.330079 -5.009766 -0.801634 -22.646484 -21.357422 0.970353 -9.189453 34.580078 -70.664055 52.792969 3.740234 -63.926418 -2.695313 -10.039063 0.058594 6.610201 9.609206 6.739836 47.924553 -0.516475 -2.829984 -23.619020 6.513125 -2.587046 -53.376404 -12.304194 1.901834 47.885590 -0.339132 2.990680 3.751469 9.971043 4.315773 
-4.133767 42.042286 -79.180153 5.976563 -2.646484 13.359375 12.812500 3.173711 -1.786661 -25.390623 -2.275390 -1.807028 18.515627 -1.386719 -1.181877 17.607422 5.429688 -1.132812 13.173827 20.595701 1.015625 3.769531 -19.628906 -53.870472 -40.107422 -3.232422 -35.224060 9.912109 -4.990234 -0.889522 -25.048830 -21.054686 0.976563 -9.121095 27.919924 -77.705078 48.300777 3.623047 -54.375004 1.083984 -14.228515 -0.839844 6.198044 7.965594 6.354346 46.333107 -0.691945 -2.802607 -28.951372 7.649660 -1.062893 -53.345245 -12.127965 3.215524 44.563103 0.217789 2.712824 4.415412 8.737878 4.192914 
-3.972874 42.273136 -80.539261 5.791016 -2.470703 12.646574 12.802734 3.066406 -1.454556 -25.566408 -1.923828 -1.279297 22.724609 -1.562500 -1.162376 16.015625 5.791016 -1.209952 14.375001 20.361328 0.992696 1.699219 -11.308594 -61.623013 -34.941402 -3.330078 -38.563889 12.900390 -4.589843 -1.054687 -27.832031 -20.791018 0.888672 -8.349609 22.998047 -83.853607 45.722660 3.437500 -44.727150 4.658203 -16.347656 -1.923828 5.143707 6.374338 5.630851 46.004440 -0.701836 -2.440780 -31.708416 9.050034 0.414577 -52.864849 -11.962072 3.653316 43.829254 0.048876 2.935027 3.524876 6.416739 4.585170 
-3.818265 42.529827 -81.718399 5.449219 -2.470703 12.294589 12.968750 3.125000 -1.064453 -25.566406 -1.396484 -0.927976 25.898439 -2.275391 -1.250388 14.609373 6.318359 -1.279297 15.439453 19.746092 0.986328 -0.332031 -4.687505 -66.436363 -31.259768 -3.271485 -40.224606 13.769531 -4.082031 -0.928428 -30.800779 -20.429688 0.872549 -7.187500 20.097656 -88.150940 45.937500 3.310547 -39.501953 4.091797 -16.728516 -1.787109 3.562990 5.311120 5.024868 46.317902 -0.819477 -2.698377 -33.461174 10.788528 1.917870 -52.255276 -12.118963 3.013817 46.676594 0.324950 2.689467 2.615963 5.086734 4.933832 
-3.681441 42.771221 -82.770309 4.912109 -2.470703 12.304354 12.792970 3.349610 -0.624429 -25.566406 -0.693359 -0.752071 27.841797 -2.822266 -1.357422 12.841797 6.669922 -1.541835 15.957031 18.310547 0.908203 -2.119140 0.898438 -65.966644 -30.175783 -3.291016 -39.541012 13.955078 -4.394531 -1.113281 -32.568359 -20.195314 0.830079 -5.966797 17.812500 -90.273438 47.412109 3.291015 -38.086494 2.324219 -15.937500 -1.337891 2.771689 4.364160 4.238381 46.342499 -0.692638 -2.813062 -35.488312 12.815935 3.762831 -51.198238 -12.470097 2.243293 51.043888 -0.339729 2.947591 2.933967 6.027664 4.686128 
-3.587063 42.969704 -83.732826 4.570313 -2.470703 12.470282 12.441406 3.466797 -0.399800 -25.390623 -0.166016 -0.566435 28.212893 -3.242188 -1.836490 11.250000 7.197266 -1.971433 16.142578 16.484375 0.876135 -3.740235 5.000000 -62.490234 -32.451172 -3.359375 -41.874432 14.863280 -5.214844 -1.328125 -33.466797 -19.873049 0.970117 -4.980468 16.435547 -91.706215 49.208984 3.242188 -39.043518 -0.634766 -14.609375 -0.390625 1.646009 3.352320 3.484941 46.513466 -0.846519 -2.700292 -36.708427 13.523326 4.974779 -50.006542 -12.821433 1.977001 55.092041 -0.525412 3.028648 2.058128 6.855695 4.877528 
